Fly_normalized_Motion_pl07
version=1
nRows=19
nColumns=43
inDegrees=yes
endheader
time		pelvis_tilt		pelvis_list		pelvis_rotation		pelvis_tx		pelvis_ty		pelvis_tz		hip_flexion_r		hip_adduction_r		hip_rotation_r		knee_angle_r		ankle_angle_r		subtalar_angle_r		mtp_angle_r		hip_flexion_l		hip_adduction_l		hip_rotation_l		knee_angle_l		ankle_angle_l		subtalar_angle_l		mtp_angle_l		lumbar_extension		lumbar_bending		lumbar_rotation		neck_flexion		neck_lateral_bending		neck_rotation		arm_flex_r		arm_add_r		arm_rot_r		elbow_flex_r		pro_sup_r		wrist_flex_r		wrist_dev_r		hand_finger_flex_r		arm_flex_l		arm_add_l		arm_rot_l		elbow_flex_l		pro_sup_l		wrist_flex_l		wrist_dev_l		hand_finger_flex_l		
0.303333		1.388476		-6.990504		88.521796		0.045675		1.760063		1.261050		47.464686		0.079552		0.028556		-97.080540		-20.941758		-6.565749		3.534130		65.193537		-6.397012		1.081031		-80.623971		-16.460862		-2.290158		18.375886		-43.961103		-1.422515		7.501794		22.341550		1.608931		-7.135461		72.761444		-33.827981		17.121435		58.746482		119.615040		-0.793844		-10.238762		24.218290		68.996801		-26.052255		28.358002		42.861649		113.570835		-9.721209		1.072979		2.052199		
0.307525		1.395224		-6.641205		88.443935		0.045192		1.755838		1.252789		47.696530		0.089877		-0.139948		-95.905889		-21.660586		-6.548270		3.199813		64.633618		-6.437669		1.026945		-79.096747		-17.453603		-2.076155		18.541558		-44.452612		-1.472082		7.455485		22.442066		1.589157		-6.930175		71.079960		-34.245400		16.603010		59.130999		119.458390		-0.821678		-10.161579		24.290072		67.410290		-26.793981		28.054588		43.208445		113.646252		-9.539079		1.119916		2.184901		
0.311717		1.435004		-6.476380		88.371448		0.044704		1.751299		1.244670		48.085286		0.186756		-0.283647		-94.672970		-22.145255		-6.481625		2.927143		64.173643		-6.479098		0.976242		-77.473160		-18.120009		-2.117762		18.734532		-44.756921		-1.490591		7.411470		22.733033		1.601879		-6.752966		69.485855		-34.536270		16.087827		59.271198		119.380785		-0.735493		-9.994957		24.375656		65.829586		-27.432865		27.637184		43.337980		113.703384		-9.303556		1.216493		2.345793		
0.315909		1.444194		-6.257796		88.279765		0.044100		1.746489		1.236374		48.390939		0.174686		-0.458955		-93.425437		-22.635639		-6.307366		2.642231		63.662965		-6.551709		0.830172		-75.921063		-18.818657		-2.168307		18.961087		-45.064347		-1.508274		7.357489		22.637511		1.541652		-6.554553		67.756667		-34.920746		15.619122		59.597981		119.352453		-0.578475		-9.914109		24.459021		64.105237		-28.099841		27.151322		43.550997		113.796477		-9.069512		1.265627		2.501779		
0.320101		1.494852		-6.093966		88.202634		0.043580		1.741437		1.228192		48.718456		0.234722		-0.643825		-92.152264		-22.887853		-6.110183		2.505736		63.130496		-6.656999		0.711863		-74.286742		-19.192038		-2.198278		19.044558		-45.291313		-1.484068		7.323224		22.654166		1.489429		-6.440934		66.233917		-35.273633		15.448338		59.580040		119.337270		-0.462801		-9.881379		24.487589		62.559973		-28.665053		26.928362		43.348526		113.800472		-8.941012		1.320477		2.570279		
0.324293		1.459763		-6.030680		88.132983		0.043074		1.735938		1.219834		49.188577		0.161874		-0.786257		-90.914610		-23.439223		-5.629049		2.246687		62.689234		-6.745264		0.449545		-72.646735		-19.929008		-2.388683		19.231040		-45.420738		-1.521665		7.224211		22.644395		1.404281		-6.183007		64.181250		-35.615597		14.652601		60.087895		119.276990		-0.371478		-9.858705		24.399105		60.589482		-29.235215		25.989333		43.591833		113.653605		-8.884442		1.287194		2.609692		
0.328485		1.423014		-5.952611		88.035177		0.042565		1.730185		1.211392		49.562317		0.089881		-0.916245		-89.605482		-23.769635		-5.167345		2.077521		62.206048		-6.844032		0.183266		-71.039270		-20.422566		-2.518244		19.326024		-45.503822		-1.556772		7.137345		22.468922		1.297121		-5.990720		62.228677		-35.980616		14.122787		60.444722		119.261816		-0.264779		-9.808631		24.274810		58.694006		-29.746366		25.313134		43.539267		113.516707		-8.905517		1.254943		2.577185		
0.332677		1.398838		-5.958616		87.974890		0.042256		1.724171		1.202884		49.994396		0.109389		-0.975275		-88.295593		-23.978613		-4.576446		1.907346		61.765059		-6.938511		-0.067894		-69.378529		-20.890407		-2.754341		19.416934		-45.495367		-1.595558		7.033393		22.472318		1.245314		-5.834235		60.134544		-36.259874		13.377314		60.828201		119.313796		-0.070406		-9.590705		24.029297		56.745629		-30.164817		24.389103		43.408410		113.378845		-8.983997		1.205192		2.470647		
0.336869		1.367804		-5.893452		87.913405		0.041892		1.717959		1.194154		50.283942		0.084290		-1.063208		-86.955484		-24.126053		-4.024426		1.812066		61.252736		-7.042556		-0.364482		-67.799397		-21.240304		-2.870957		19.390936		-45.508136		-1.623611		6.925563		22.244447		1.183733		-5.706663		58.012380		-36.617548		12.783130		61.226000		119.283447		0.108619		-9.454021		23.821096		54.780380		-30.621583		23.732894		43.206398		113.265143		-9.133534		1.103214		2.333632		
0.341061		1.326171		-5.835759		87.844259		0.041426		1.711593		1.185287		50.524550		0.047018		-1.123878		-85.574942		-24.221465		-3.385278		1.756278		60.731807		-7.108487		-0.641260		-66.243380		-21.570283		-2.992910		19.294440		-45.508568		-1.662339		6.828560		22.040692		1.149701		-5.609922		55.764998		-36.980404		12.039908		61.706557		119.209479		0.333120		-9.322674		23.568477		52.724213		-31.047828		23.011644		43.042900		113.159464		-9.324016		0.969919		2.165287		
0.345253		1.344648		-5.777187		87.795234		0.040943		1.705183		1.176426		50.673400		0.080125		-1.228469		-84.088467		-24.235681		-2.911087		1.745665		60.178413		-7.189137		-0.834791		-64.657920		-21.751800		-3.058357		19.184631		-45.502060		-1.652475		6.717834		21.938988		1.146573		-5.567426		53.732248		-37.317626		11.602550		61.903463		119.115354		0.523339		-9.266880		23.424124		50.797258		-31.506455		22.601218		42.674359		113.082290		-9.437301		0.932270		2.064447		
0.349444		1.270494		-5.718399		87.772701		0.040251		1.698522		1.167301		50.831082		0.000518		-1.199348		-82.690638		-24.260819		-1.873568		1.823046		59.610693		-7.177021		-1.116073		-63.110112		-22.117391		-3.126665		18.882231		-45.544139		-1.715710		6.630703		21.985536		1.169684		-5.492760		50.980897		-37.641006		10.144477		62.690448		118.710266		0.686246		-9.390362		23.072716		48.408735		-31.846008		21.477448		42.870846		112.862757		-9.855776		0.650837		1.866979		
0.353636		1.275373		-5.627850		87.721937		0.039601		1.691773		1.158283		50.858109		-0.027001		-1.315884		-81.158485		-24.205196		-1.332732		1.884485		58.995047		-7.233464		-1.305293		-61.580234		-22.293895		-3.075524		18.691589		-45.563221		-1.706004		6.521271		21.875218		1.156166		-5.443340		48.785566		-37.953973		9.522201		62.931991		118.418307		0.804355		-9.565235		22.955302		46.285896		-32.320161		21.060356		42.657314		112.766628		-10.013961		0.552320		1.838665		
0.357828		1.270250		-5.535399		87.670745		0.038954		1.684838		1.149192		50.836977		-0.046930		-1.408394		-79.601094		-24.116668		-0.741988		1.962163		58.363561		-7.283119		-1.506004		-60.064505		-22.497694		-2.975311		18.481371		-45.577606		-1.703361		6.400303		21.776440		1.139084		-5.375424		46.469004		-38.226858		8.756380		63.225456		118.020715		0.866305		-9.811799		22.841315		44.050981		-32.784572		20.563092		42.512176		112.640326		-10.233254		0.407045		1.828110		
0.362020		1.223037		-5.368565		87.622678		0.038289		1.677631		1.139870		50.738863		-0.125625		-1.446865		-78.142913		-23.913824		0.138089		2.124625		57.657200		-7.327317		-1.796160		-58.611046		-22.864022		-2.704283		18.122365		-45.665055		-1.740831		6.306627		21.638750		1.097078		-5.244671		43.664156		-38.419753		7.288830		63.850058		117.272915		0.863804		-10.212686		22.652363		41.478232		-33.182724		19.604813		42.747427		112.506676		-10.652822		0.063371		1.891623		
0.366212		1.219637		-5.181804		87.562621		0.037707		1.670318		1.130527		50.519644		-0.121017		-1.496369		-76.560325		-23.677676		0.752471		2.259902		56.915215		-7.404791		-2.038881		-57.178227		-23.160567		-2.383080		17.822897		-45.730428		-1.749048		6.187772		21.479775		1.075061		-5.104823		41.072380		-38.543644		6.143678		64.232120		116.580986		0.841646		-10.471008		22.512862		39.030272		-33.581103		18.870259		42.690000		112.460867		-10.985257		-0.187129		2.000771		
0.370404		1.238079		-5.018175		87.522702		0.037172		1.662831		1.121116		50.261186		-0.062406		-1.496652		-74.937709		-23.343883		1.438529		2.455364		56.185022		-7.473664		-2.247189		-55.773460		-23.379347		-1.968705		17.443359		-45.781880		-1.750937		6.076043		21.537573		1.153591		-5.014990		38.364175		-38.618794		4.852777		64.692296		115.712368		0.878884		-10.613352		22.320926		36.576776		-33.852614		17.902248		42.527824		112.542856		-11.333325		-0.407652		2.236520		
0.374596		1.234837		-4.725454		87.451305		0.036500		1.655142		1.111594		49.845034		-0.087115		-1.565347		-73.317079		-23.141279		1.876051		2.566565		55.360675		-7.545128		-2.509386		-54.487675		-23.780398		-1.525065		17.191043		-45.874538		-1.750808		5.945253		21.075968		1.123866		-4.825166		35.754985		-38.745098		3.849182		65.059839		114.981561		0.802300		-10.796463		22.162851		34.054226		-34.230243		17.280084		42.441689		112.544890		-11.645895		-0.635802		2.347242		
0.378788		1.242648		-4.437995		87.396431		0.035845		1.647272		1.101998		49.385780		-0.096547		-1.627477		-71.677378		-22.866781		2.394167		2.692735		54.529907		-7.604172		-2.739538		-53.225909		-24.163230		-0.995950		16.979197		-45.971192		-1.756556		5.811810		20.824050		1.179716		-4.662988		33.023486		-38.823675		2.716198		65.493601		114.115273		0.719978		-10.993862		21.979533		31.496228		-34.519309		16.485587		42.330096		112.497871		-12.035114		-0.850185		2.410236		
